<mxfile host="app.diagrams.net" agent="Mozilla/5.0 (Windows NT 10.0; Win64; x64) AppleWebKit/537.36 (KHTML, like Gecko) Chrome/134.0.0.0 Safari/537.36" version="26.1.0">
  <diagram name="第 1 页" id="O3qDIk_rTRhzeq1MKPPP">
    <mxGraphModel dx="6321" dy="3459" grid="1" gridSize="10" guides="1" tooltips="1" connect="1" arrows="1" fold="1" page="1" pageScale="1" pageWidth="827" pageHeight="1169" math="0" shadow="0">
      <root>
        <mxCell id="0" />
        <mxCell id="1" parent="0" />
        <mxCell id="qXPxcM11ZACjKNrQmsFE-1" value="&lt;font style=&quot;font-size: 18px;&quot;&gt;用户&lt;/font&gt;" style="rounded=0;whiteSpace=wrap;html=1;" vertex="1" parent="1">
          <mxGeometry x="350" y="340" width="120" height="60" as="geometry" />
        </mxCell>
        <mxCell id="qXPxcM11ZACjKNrQmsFE-2" value="&lt;font style=&quot;font-size: 18px;&quot;&gt;用户账号&lt;/font&gt;" style="ellipse;whiteSpace=wrap;html=1;" vertex="1" parent="1">
          <mxGeometry x="140" y="240" width="100" height="60" as="geometry" />
        </mxCell>
        <mxCell id="qXPxcM11ZACjKNrQmsFE-3" value="&lt;font style=&quot;font-size: 18px;&quot;&gt;用户姓名&lt;/font&gt;" style="ellipse;whiteSpace=wrap;html=1;" vertex="1" parent="1">
          <mxGeometry x="210" y="170" width="100" height="60" as="geometry" />
        </mxCell>
        <mxCell id="qXPxcM11ZACjKNrQmsFE-4" value="&lt;font style=&quot;font-size: 18px;&quot;&gt;性别&lt;/font&gt;" style="ellipse;whiteSpace=wrap;html=1;" vertex="1" parent="1">
          <mxGeometry x="500" y="110" width="100" height="60" as="geometry" />
        </mxCell>
        <mxCell id="qXPxcM11ZACjKNrQmsFE-5" value="&lt;font style=&quot;font-size: 18px;&quot;&gt;照片&lt;/font&gt;" style="ellipse;whiteSpace=wrap;html=1;" vertex="1" parent="1">
          <mxGeometry x="610" y="160" width="100" height="60" as="geometry" />
        </mxCell>
        <mxCell id="qXPxcM11ZACjKNrQmsFE-6" value="&lt;font style=&quot;font-size: 18px;&quot;&gt;手机号&lt;/font&gt;" style="ellipse;whiteSpace=wrap;html=1;" vertex="1" parent="1">
          <mxGeometry x="600" y="240" width="100" height="60" as="geometry" />
        </mxCell>
        <mxCell id="qXPxcM11ZACjKNrQmsFE-7" value="" style="endArrow=none;html=1;rounded=0;entryX=1;entryY=1;entryDx=0;entryDy=0;exitX=0.5;exitY=0;exitDx=0;exitDy=0;" edge="1" parent="1" source="qXPxcM11ZACjKNrQmsFE-1" target="qXPxcM11ZACjKNrQmsFE-2">
          <mxGeometry width="50" height="50" relative="1" as="geometry">
            <mxPoint x="390" y="390" as="sourcePoint" />
            <mxPoint x="440" y="340" as="targetPoint" />
          </mxGeometry>
        </mxCell>
        <mxCell id="qXPxcM11ZACjKNrQmsFE-8" value="" style="endArrow=none;html=1;rounded=0;entryX=0.5;entryY=1;entryDx=0;entryDy=0;exitX=0.5;exitY=0;exitDx=0;exitDy=0;" edge="1" parent="1" source="qXPxcM11ZACjKNrQmsFE-1" target="qXPxcM11ZACjKNrQmsFE-4">
          <mxGeometry width="50" height="50" relative="1" as="geometry">
            <mxPoint x="420" y="350" as="sourcePoint" />
            <mxPoint x="235" y="301" as="targetPoint" />
          </mxGeometry>
        </mxCell>
        <mxCell id="qXPxcM11ZACjKNrQmsFE-9" value="" style="endArrow=none;html=1;rounded=0;entryX=1;entryY=1;entryDx=0;entryDy=0;exitX=0.5;exitY=0;exitDx=0;exitDy=0;" edge="1" parent="1" source="qXPxcM11ZACjKNrQmsFE-1" target="qXPxcM11ZACjKNrQmsFE-3">
          <mxGeometry width="50" height="50" relative="1" as="geometry">
            <mxPoint x="420" y="350" as="sourcePoint" />
            <mxPoint x="420" y="190" as="targetPoint" />
          </mxGeometry>
        </mxCell>
        <mxCell id="qXPxcM11ZACjKNrQmsFE-10" value="" style="endArrow=none;html=1;rounded=0;entryX=0;entryY=1;entryDx=0;entryDy=0;exitX=0.5;exitY=0;exitDx=0;exitDy=0;" edge="1" parent="1" source="qXPxcM11ZACjKNrQmsFE-1" target="qXPxcM11ZACjKNrQmsFE-5">
          <mxGeometry width="50" height="50" relative="1" as="geometry">
            <mxPoint x="420" y="350" as="sourcePoint" />
            <mxPoint x="305" y="231" as="targetPoint" />
          </mxGeometry>
        </mxCell>
        <mxCell id="qXPxcM11ZACjKNrQmsFE-11" value="" style="endArrow=none;html=1;rounded=0;entryX=0;entryY=0.5;entryDx=0;entryDy=0;exitX=0.5;exitY=0;exitDx=0;exitDy=0;" edge="1" parent="1" source="qXPxcM11ZACjKNrQmsFE-1" target="qXPxcM11ZACjKNrQmsFE-6">
          <mxGeometry width="50" height="50" relative="1" as="geometry">
            <mxPoint x="420" y="350" as="sourcePoint" />
            <mxPoint x="545" y="231" as="targetPoint" />
          </mxGeometry>
        </mxCell>
        <mxCell id="qXPxcM11ZACjKNrQmsFE-31" value="&lt;font style=&quot;font-size: 18px;&quot;&gt;美食信息&lt;/font&gt;" style="rounded=0;whiteSpace=wrap;html=1;" vertex="1" parent="1">
          <mxGeometry x="-760" y="300" width="120" height="60" as="geometry" />
        </mxCell>
        <mxCell id="qXPxcM11ZACjKNrQmsFE-32" value="&lt;font style=&quot;font-size: 18px;&quot;&gt;美食ID&lt;/font&gt;" style="ellipse;whiteSpace=wrap;html=1;" vertex="1" parent="1">
          <mxGeometry x="-1040" y="220" width="100" height="60" as="geometry" />
        </mxCell>
        <mxCell id="qXPxcM11ZACjKNrQmsFE-33" value="&lt;font style=&quot;font-size: 18px;&quot;&gt;美食名称&lt;/font&gt;" style="ellipse;whiteSpace=wrap;html=1;" vertex="1" parent="1">
          <mxGeometry x="-1020" y="150" width="100" height="60" as="geometry" />
        </mxCell>
        <mxCell id="qXPxcM11ZACjKNrQmsFE-34" value="&lt;font style=&quot;font-size: 18px;&quot;&gt;美食分类&lt;/font&gt;" style="ellipse;whiteSpace=wrap;html=1;" vertex="1" parent="1">
          <mxGeometry x="-960" y="90" width="100" height="60" as="geometry" />
        </mxCell>
        <mxCell id="qXPxcM11ZACjKNrQmsFE-35" value="&lt;font style=&quot;font-size: 18px;&quot;&gt;美食评分&lt;/font&gt;" style="ellipse;whiteSpace=wrap;html=1;" vertex="1" parent="1">
          <mxGeometry x="-520" y="60" width="100" height="60" as="geometry" />
        </mxCell>
        <mxCell id="qXPxcM11ZACjKNrQmsFE-36" value="&lt;span style=&quot;font-size: 18px;&quot;&gt;视频介绍&lt;/span&gt;" style="ellipse;whiteSpace=wrap;html=1;" vertex="1" parent="1">
          <mxGeometry x="-420" y="220" width="100" height="60" as="geometry" />
        </mxCell>
        <mxCell id="qXPxcM11ZACjKNrQmsFE-37" value="" style="endArrow=none;html=1;rounded=0;entryX=1;entryY=1;entryDx=0;entryDy=0;exitX=0.5;exitY=0;exitDx=0;exitDy=0;" edge="1" parent="1" source="qXPxcM11ZACjKNrQmsFE-31" target="qXPxcM11ZACjKNrQmsFE-32">
          <mxGeometry width="50" height="50" relative="1" as="geometry">
            <mxPoint x="-720" y="350" as="sourcePoint" />
            <mxPoint x="-670" y="300" as="targetPoint" />
          </mxGeometry>
        </mxCell>
        <mxCell id="qXPxcM11ZACjKNrQmsFE-38" value="" style="endArrow=none;html=1;rounded=0;entryX=0.5;entryY=1;entryDx=0;entryDy=0;exitX=0.5;exitY=0;exitDx=0;exitDy=0;" edge="1" parent="1" source="qXPxcM11ZACjKNrQmsFE-31" target="qXPxcM11ZACjKNrQmsFE-34">
          <mxGeometry width="50" height="50" relative="1" as="geometry">
            <mxPoint x="-690" y="310" as="sourcePoint" />
            <mxPoint x="-875" y="261" as="targetPoint" />
          </mxGeometry>
        </mxCell>
        <mxCell id="qXPxcM11ZACjKNrQmsFE-39" value="" style="endArrow=none;html=1;rounded=0;entryX=1;entryY=1;entryDx=0;entryDy=0;exitX=0.5;exitY=0;exitDx=0;exitDy=0;" edge="1" parent="1" source="qXPxcM11ZACjKNrQmsFE-31" target="qXPxcM11ZACjKNrQmsFE-33">
          <mxGeometry width="50" height="50" relative="1" as="geometry">
            <mxPoint x="-690" y="310" as="sourcePoint" />
            <mxPoint x="-690" y="150" as="targetPoint" />
          </mxGeometry>
        </mxCell>
        <mxCell id="qXPxcM11ZACjKNrQmsFE-40" value="" style="endArrow=none;html=1;rounded=0;entryX=0;entryY=1;entryDx=0;entryDy=0;exitX=0.5;exitY=0;exitDx=0;exitDy=0;" edge="1" parent="1" source="qXPxcM11ZACjKNrQmsFE-31" target="qXPxcM11ZACjKNrQmsFE-35">
          <mxGeometry width="50" height="50" relative="1" as="geometry">
            <mxPoint x="-690" y="310" as="sourcePoint" />
            <mxPoint x="-805" y="191" as="targetPoint" />
          </mxGeometry>
        </mxCell>
        <mxCell id="qXPxcM11ZACjKNrQmsFE-41" value="" style="endArrow=none;html=1;rounded=0;entryX=0;entryY=0.5;entryDx=0;entryDy=0;exitX=0.5;exitY=0;exitDx=0;exitDy=0;" edge="1" parent="1" source="qXPxcM11ZACjKNrQmsFE-31" target="qXPxcM11ZACjKNrQmsFE-36">
          <mxGeometry width="50" height="50" relative="1" as="geometry">
            <mxPoint x="-690" y="310" as="sourcePoint" />
            <mxPoint x="-565" y="191" as="targetPoint" />
          </mxGeometry>
        </mxCell>
        <mxCell id="qXPxcM11ZACjKNrQmsFE-42" value="&lt;font style=&quot;font-size: 18px;&quot;&gt;封面&lt;/font&gt;" style="ellipse;whiteSpace=wrap;html=1;" vertex="1" parent="1">
          <mxGeometry x="-870" y="40" width="100" height="60" as="geometry" />
        </mxCell>
        <mxCell id="qXPxcM11ZACjKNrQmsFE-43" value="&lt;font style=&quot;font-size: 18px;&quot;&gt;价格&lt;/font&gt;" style="ellipse;whiteSpace=wrap;html=1;" vertex="1" parent="1">
          <mxGeometry x="-760" y="20" width="100" height="60" as="geometry" />
        </mxCell>
        <mxCell id="qXPxcM11ZACjKNrQmsFE-44" value="&lt;font style=&quot;font-size: 18px;&quot;&gt;美食地点&lt;/font&gt;" style="ellipse;whiteSpace=wrap;html=1;" vertex="1" parent="1">
          <mxGeometry x="-630" y="30" width="100" height="60" as="geometry" />
        </mxCell>
        <mxCell id="qXPxcM11ZACjKNrQmsFE-45" value="&lt;font style=&quot;font-size: 18px;&quot;&gt;美食详情&lt;/font&gt;" style="ellipse;whiteSpace=wrap;html=1;" vertex="1" parent="1">
          <mxGeometry x="-430" y="130" width="100" height="60" as="geometry" />
        </mxCell>
        <mxCell id="qXPxcM11ZACjKNrQmsFE-46" value="" style="endArrow=none;html=1;rounded=0;entryX=0.5;entryY=1;entryDx=0;entryDy=0;exitX=0.5;exitY=0;exitDx=0;exitDy=0;" edge="1" parent="1" source="qXPxcM11ZACjKNrQmsFE-31" target="qXPxcM11ZACjKNrQmsFE-42">
          <mxGeometry width="50" height="50" relative="1" as="geometry">
            <mxPoint x="-720" y="230" as="sourcePoint" />
            <mxPoint x="-670" y="180" as="targetPoint" />
          </mxGeometry>
        </mxCell>
        <mxCell id="qXPxcM11ZACjKNrQmsFE-47" value="" style="endArrow=none;html=1;rounded=0;entryX=0.5;entryY=1;entryDx=0;entryDy=0;exitX=0.5;exitY=0;exitDx=0;exitDy=0;" edge="1" parent="1" source="qXPxcM11ZACjKNrQmsFE-31" target="qXPxcM11ZACjKNrQmsFE-43">
          <mxGeometry width="50" height="50" relative="1" as="geometry">
            <mxPoint x="-690" y="310" as="sourcePoint" />
            <mxPoint x="-810" y="110" as="targetPoint" />
          </mxGeometry>
        </mxCell>
        <mxCell id="qXPxcM11ZACjKNrQmsFE-48" value="" style="endArrow=none;html=1;rounded=0;entryX=0.5;entryY=1;entryDx=0;entryDy=0;exitX=0.5;exitY=0;exitDx=0;exitDy=0;" edge="1" parent="1" source="qXPxcM11ZACjKNrQmsFE-31" target="qXPxcM11ZACjKNrQmsFE-44">
          <mxGeometry width="50" height="50" relative="1" as="geometry">
            <mxPoint x="-690" y="310" as="sourcePoint" />
            <mxPoint x="-700" y="90" as="targetPoint" />
          </mxGeometry>
        </mxCell>
        <mxCell id="qXPxcM11ZACjKNrQmsFE-49" value="" style="endArrow=none;html=1;rounded=0;entryX=0;entryY=1;entryDx=0;entryDy=0;exitX=0.5;exitY=0;exitDx=0;exitDy=0;" edge="1" parent="1" source="qXPxcM11ZACjKNrQmsFE-31" target="qXPxcM11ZACjKNrQmsFE-45">
          <mxGeometry width="50" height="50" relative="1" as="geometry">
            <mxPoint x="-690" y="310" as="sourcePoint" />
            <mxPoint x="-570" y="100" as="targetPoint" />
          </mxGeometry>
        </mxCell>
        <mxCell id="qXPxcM11ZACjKNrQmsFE-50" value="&lt;font style=&quot;font-size: 18px;&quot;&gt;旅游路线&lt;/font&gt;" style="rounded=0;whiteSpace=wrap;html=1;" vertex="1" parent="1">
          <mxGeometry x="330" y="-230" width="120" height="60" as="geometry" />
        </mxCell>
        <mxCell id="qXPxcM11ZACjKNrQmsFE-51" value="&lt;font style=&quot;font-size: 18px;&quot;&gt;路线ID&lt;/font&gt;" style="ellipse;whiteSpace=wrap;html=1;" vertex="1" parent="1">
          <mxGeometry x="50" y="-310" width="100" height="60" as="geometry" />
        </mxCell>
        <mxCell id="qXPxcM11ZACjKNrQmsFE-52" value="&lt;font style=&quot;font-size: 18px;&quot;&gt;路线名称&lt;/font&gt;" style="ellipse;whiteSpace=wrap;html=1;" vertex="1" parent="1">
          <mxGeometry x="70" y="-380" width="100" height="60" as="geometry" />
        </mxCell>
        <mxCell id="qXPxcM11ZACjKNrQmsFE-53" value="&lt;font style=&quot;font-size: 18px;&quot;&gt;路线图片&lt;/font&gt;" style="ellipse;whiteSpace=wrap;html=1;" vertex="1" parent="1">
          <mxGeometry x="130" y="-440" width="100" height="60" as="geometry" />
        </mxCell>
        <mxCell id="qXPxcM11ZACjKNrQmsFE-54" value="&lt;font style=&quot;font-size: 18px;&quot;&gt;导游费用&lt;/font&gt;" style="ellipse;whiteSpace=wrap;html=1;" vertex="1" parent="1">
          <mxGeometry x="570" y="-470" width="100" height="60" as="geometry" />
        </mxCell>
        <mxCell id="qXPxcM11ZACjKNrQmsFE-55" value="&lt;span style=&quot;font-size: 18px;&quot;&gt;费用说明&lt;/span&gt;" style="ellipse;whiteSpace=wrap;html=1;" vertex="1" parent="1">
          <mxGeometry x="670" y="-310" width="100" height="60" as="geometry" />
        </mxCell>
        <mxCell id="qXPxcM11ZACjKNrQmsFE-56" value="" style="endArrow=none;html=1;rounded=0;entryX=1;entryY=1;entryDx=0;entryDy=0;exitX=0.5;exitY=0;exitDx=0;exitDy=0;" edge="1" parent="1" source="qXPxcM11ZACjKNrQmsFE-50" target="qXPxcM11ZACjKNrQmsFE-51">
          <mxGeometry width="50" height="50" relative="1" as="geometry">
            <mxPoint x="370" y="-180" as="sourcePoint" />
            <mxPoint x="420" y="-230" as="targetPoint" />
          </mxGeometry>
        </mxCell>
        <mxCell id="qXPxcM11ZACjKNrQmsFE-57" value="" style="endArrow=none;html=1;rounded=0;entryX=0.5;entryY=1;entryDx=0;entryDy=0;exitX=0.5;exitY=0;exitDx=0;exitDy=0;" edge="1" parent="1" source="qXPxcM11ZACjKNrQmsFE-50" target="qXPxcM11ZACjKNrQmsFE-53">
          <mxGeometry width="50" height="50" relative="1" as="geometry">
            <mxPoint x="400" y="-220" as="sourcePoint" />
            <mxPoint x="215" y="-269" as="targetPoint" />
          </mxGeometry>
        </mxCell>
        <mxCell id="qXPxcM11ZACjKNrQmsFE-58" value="" style="endArrow=none;html=1;rounded=0;entryX=1;entryY=1;entryDx=0;entryDy=0;exitX=0.5;exitY=0;exitDx=0;exitDy=0;" edge="1" parent="1" source="qXPxcM11ZACjKNrQmsFE-50" target="qXPxcM11ZACjKNrQmsFE-52">
          <mxGeometry width="50" height="50" relative="1" as="geometry">
            <mxPoint x="400" y="-220" as="sourcePoint" />
            <mxPoint x="400" y="-380" as="targetPoint" />
          </mxGeometry>
        </mxCell>
        <mxCell id="qXPxcM11ZACjKNrQmsFE-59" value="" style="endArrow=none;html=1;rounded=0;entryX=0;entryY=1;entryDx=0;entryDy=0;exitX=0.5;exitY=0;exitDx=0;exitDy=0;" edge="1" parent="1" source="qXPxcM11ZACjKNrQmsFE-50" target="qXPxcM11ZACjKNrQmsFE-54">
          <mxGeometry width="50" height="50" relative="1" as="geometry">
            <mxPoint x="400" y="-220" as="sourcePoint" />
            <mxPoint x="285" y="-339" as="targetPoint" />
          </mxGeometry>
        </mxCell>
        <mxCell id="qXPxcM11ZACjKNrQmsFE-60" value="" style="endArrow=none;html=1;rounded=0;entryX=0;entryY=0.5;entryDx=0;entryDy=0;exitX=0.5;exitY=0;exitDx=0;exitDy=0;" edge="1" parent="1" source="qXPxcM11ZACjKNrQmsFE-50" target="qXPxcM11ZACjKNrQmsFE-55">
          <mxGeometry width="50" height="50" relative="1" as="geometry">
            <mxPoint x="400" y="-220" as="sourcePoint" />
            <mxPoint x="525" y="-339" as="targetPoint" />
          </mxGeometry>
        </mxCell>
        <mxCell id="qXPxcM11ZACjKNrQmsFE-61" value="&lt;font style=&quot;font-size: 18px;&quot;&gt;起点&lt;/font&gt;" style="ellipse;whiteSpace=wrap;html=1;" vertex="1" parent="1">
          <mxGeometry x="220" y="-490" width="100" height="60" as="geometry" />
        </mxCell>
        <mxCell id="qXPxcM11ZACjKNrQmsFE-62" value="&lt;font style=&quot;font-size: 18px;&quot;&gt;终点&lt;/font&gt;" style="ellipse;whiteSpace=wrap;html=1;" vertex="1" parent="1">
          <mxGeometry x="330" y="-510" width="100" height="60" as="geometry" />
        </mxCell>
        <mxCell id="qXPxcM11ZACjKNrQmsFE-63" value="&lt;font style=&quot;font-size: 18px;&quot;&gt;交通方式&lt;/font&gt;" style="ellipse;whiteSpace=wrap;html=1;" vertex="1" parent="1">
          <mxGeometry x="460" y="-500" width="100" height="60" as="geometry" />
        </mxCell>
        <mxCell id="qXPxcM11ZACjKNrQmsFE-64" value="&lt;font style=&quot;font-size: 18px;&quot;&gt;路线详情&lt;/font&gt;" style="ellipse;whiteSpace=wrap;html=1;" vertex="1" parent="1">
          <mxGeometry x="660" y="-400" width="100" height="60" as="geometry" />
        </mxCell>
        <mxCell id="qXPxcM11ZACjKNrQmsFE-65" value="" style="endArrow=none;html=1;rounded=0;entryX=0.5;entryY=1;entryDx=0;entryDy=0;exitX=0.5;exitY=0;exitDx=0;exitDy=0;" edge="1" parent="1" source="qXPxcM11ZACjKNrQmsFE-50" target="qXPxcM11ZACjKNrQmsFE-61">
          <mxGeometry width="50" height="50" relative="1" as="geometry">
            <mxPoint x="370" y="-300" as="sourcePoint" />
            <mxPoint x="420" y="-350" as="targetPoint" />
          </mxGeometry>
        </mxCell>
        <mxCell id="qXPxcM11ZACjKNrQmsFE-66" value="" style="endArrow=none;html=1;rounded=0;entryX=0.5;entryY=1;entryDx=0;entryDy=0;exitX=0.5;exitY=0;exitDx=0;exitDy=0;" edge="1" parent="1" source="qXPxcM11ZACjKNrQmsFE-50" target="qXPxcM11ZACjKNrQmsFE-62">
          <mxGeometry width="50" height="50" relative="1" as="geometry">
            <mxPoint x="400" y="-220" as="sourcePoint" />
            <mxPoint x="280" y="-420" as="targetPoint" />
          </mxGeometry>
        </mxCell>
        <mxCell id="qXPxcM11ZACjKNrQmsFE-67" value="" style="endArrow=none;html=1;rounded=0;entryX=0.5;entryY=1;entryDx=0;entryDy=0;exitX=0.5;exitY=0;exitDx=0;exitDy=0;" edge="1" parent="1" source="qXPxcM11ZACjKNrQmsFE-50" target="qXPxcM11ZACjKNrQmsFE-63">
          <mxGeometry width="50" height="50" relative="1" as="geometry">
            <mxPoint x="400" y="-220" as="sourcePoint" />
            <mxPoint x="390" y="-440" as="targetPoint" />
          </mxGeometry>
        </mxCell>
        <mxCell id="qXPxcM11ZACjKNrQmsFE-68" value="" style="endArrow=none;html=1;rounded=0;entryX=0;entryY=1;entryDx=0;entryDy=0;exitX=0.5;exitY=0;exitDx=0;exitDy=0;" edge="1" parent="1" source="qXPxcM11ZACjKNrQmsFE-50" target="qXPxcM11ZACjKNrQmsFE-64">
          <mxGeometry width="50" height="50" relative="1" as="geometry">
            <mxPoint x="400" y="-220" as="sourcePoint" />
            <mxPoint x="520" y="-430" as="targetPoint" />
          </mxGeometry>
        </mxCell>
        <mxCell id="qXPxcM11ZACjKNrQmsFE-69" value="&lt;font style=&quot;font-size: 18px;&quot;&gt;酒店信息&lt;/font&gt;" style="rounded=0;whiteSpace=wrap;html=1;" vertex="1" parent="1">
          <mxGeometry x="1450" y="360" width="120" height="60" as="geometry" />
        </mxCell>
        <mxCell id="qXPxcM11ZACjKNrQmsFE-70" value="&lt;font style=&quot;font-size: 18px;&quot;&gt;酒店ID&lt;/font&gt;" style="ellipse;whiteSpace=wrap;html=1;" vertex="1" parent="1">
          <mxGeometry x="1170" y="280" width="100" height="60" as="geometry" />
        </mxCell>
        <mxCell id="qXPxcM11ZACjKNrQmsFE-71" value="&lt;font style=&quot;font-size: 18px;&quot;&gt;酒店名称&lt;/font&gt;" style="ellipse;whiteSpace=wrap;html=1;" vertex="1" parent="1">
          <mxGeometry x="1190" y="210" width="100" height="60" as="geometry" />
        </mxCell>
        <mxCell id="qXPxcM11ZACjKNrQmsFE-72" value="&lt;font style=&quot;font-size: 18px;&quot;&gt;酒店类型&lt;/font&gt;" style="ellipse;whiteSpace=wrap;html=1;" vertex="1" parent="1">
          <mxGeometry x="1250" y="150" width="100" height="60" as="geometry" />
        </mxCell>
        <mxCell id="qXPxcM11ZACjKNrQmsFE-73" value="&lt;font style=&quot;font-size: 18px;&quot;&gt;价格&lt;/font&gt;" style="ellipse;whiteSpace=wrap;html=1;" vertex="1" parent="1">
          <mxGeometry x="1690" y="120" width="100" height="60" as="geometry" />
        </mxCell>
        <mxCell id="qXPxcM11ZACjKNrQmsFE-74" value="&lt;span style=&quot;font-size: 18px;&quot;&gt;客房设施&lt;/span&gt;" style="ellipse;whiteSpace=wrap;html=1;" vertex="1" parent="1">
          <mxGeometry x="1790" y="280" width="100" height="60" as="geometry" />
        </mxCell>
        <mxCell id="qXPxcM11ZACjKNrQmsFE-75" value="" style="endArrow=none;html=1;rounded=0;entryX=1;entryY=1;entryDx=0;entryDy=0;exitX=0.5;exitY=0;exitDx=0;exitDy=0;" edge="1" parent="1" source="qXPxcM11ZACjKNrQmsFE-69" target="qXPxcM11ZACjKNrQmsFE-70">
          <mxGeometry width="50" height="50" relative="1" as="geometry">
            <mxPoint x="1490" y="410" as="sourcePoint" />
            <mxPoint x="1540" y="360" as="targetPoint" />
          </mxGeometry>
        </mxCell>
        <mxCell id="qXPxcM11ZACjKNrQmsFE-76" value="" style="endArrow=none;html=1;rounded=0;entryX=0.5;entryY=1;entryDx=0;entryDy=0;exitX=0.5;exitY=0;exitDx=0;exitDy=0;" edge="1" parent="1" source="qXPxcM11ZACjKNrQmsFE-69" target="qXPxcM11ZACjKNrQmsFE-72">
          <mxGeometry width="50" height="50" relative="1" as="geometry">
            <mxPoint x="1520" y="370" as="sourcePoint" />
            <mxPoint x="1335" y="321" as="targetPoint" />
          </mxGeometry>
        </mxCell>
        <mxCell id="qXPxcM11ZACjKNrQmsFE-77" value="" style="endArrow=none;html=1;rounded=0;entryX=1;entryY=1;entryDx=0;entryDy=0;exitX=0.5;exitY=0;exitDx=0;exitDy=0;" edge="1" parent="1" source="qXPxcM11ZACjKNrQmsFE-69" target="qXPxcM11ZACjKNrQmsFE-71">
          <mxGeometry width="50" height="50" relative="1" as="geometry">
            <mxPoint x="1520" y="370" as="sourcePoint" />
            <mxPoint x="1520" y="210" as="targetPoint" />
          </mxGeometry>
        </mxCell>
        <mxCell id="qXPxcM11ZACjKNrQmsFE-78" value="" style="endArrow=none;html=1;rounded=0;entryX=0;entryY=1;entryDx=0;entryDy=0;exitX=0.5;exitY=0;exitDx=0;exitDy=0;" edge="1" parent="1" source="qXPxcM11ZACjKNrQmsFE-69" target="qXPxcM11ZACjKNrQmsFE-73">
          <mxGeometry width="50" height="50" relative="1" as="geometry">
            <mxPoint x="1520" y="370" as="sourcePoint" />
            <mxPoint x="1405" y="251" as="targetPoint" />
          </mxGeometry>
        </mxCell>
        <mxCell id="qXPxcM11ZACjKNrQmsFE-79" value="" style="endArrow=none;html=1;rounded=0;entryX=0;entryY=0.5;entryDx=0;entryDy=0;exitX=0.5;exitY=0;exitDx=0;exitDy=0;" edge="1" parent="1" source="qXPxcM11ZACjKNrQmsFE-69" target="qXPxcM11ZACjKNrQmsFE-74">
          <mxGeometry width="50" height="50" relative="1" as="geometry">
            <mxPoint x="1520" y="370" as="sourcePoint" />
            <mxPoint x="1645" y="251" as="targetPoint" />
          </mxGeometry>
        </mxCell>
        <mxCell id="qXPxcM11ZACjKNrQmsFE-80" value="&lt;font style=&quot;font-size: 18px;&quot;&gt;酒店地址&lt;/font&gt;" style="ellipse;whiteSpace=wrap;html=1;" vertex="1" parent="1">
          <mxGeometry x="1340" y="100" width="100" height="60" as="geometry" />
        </mxCell>
        <mxCell id="qXPxcM11ZACjKNrQmsFE-81" value="&lt;font style=&quot;font-size: 18px;&quot;&gt;客房类型&lt;/font&gt;" style="ellipse;whiteSpace=wrap;html=1;" vertex="1" parent="1">
          <mxGeometry x="1450" y="80" width="100" height="60" as="geometry" />
        </mxCell>
        <mxCell id="qXPxcM11ZACjKNrQmsFE-82" value="&lt;span style=&quot;font-size: 18px;&quot;&gt;客房数量&lt;/span&gt;" style="ellipse;whiteSpace=wrap;html=1;" vertex="1" parent="1">
          <mxGeometry x="1580" y="90" width="100" height="60" as="geometry" />
        </mxCell>
        <mxCell id="qXPxcM11ZACjKNrQmsFE-83" value="&lt;font style=&quot;font-size: 18px;&quot;&gt;酒店图片&lt;/font&gt;" style="ellipse;whiteSpace=wrap;html=1;" vertex="1" parent="1">
          <mxGeometry x="1780" y="190" width="100" height="60" as="geometry" />
        </mxCell>
        <mxCell id="qXPxcM11ZACjKNrQmsFE-84" value="" style="endArrow=none;html=1;rounded=0;entryX=0.5;entryY=1;entryDx=0;entryDy=0;exitX=0.5;exitY=0;exitDx=0;exitDy=0;" edge="1" parent="1" source="qXPxcM11ZACjKNrQmsFE-69" target="qXPxcM11ZACjKNrQmsFE-80">
          <mxGeometry width="50" height="50" relative="1" as="geometry">
            <mxPoint x="1490" y="290" as="sourcePoint" />
            <mxPoint x="1540" y="240" as="targetPoint" />
          </mxGeometry>
        </mxCell>
        <mxCell id="qXPxcM11ZACjKNrQmsFE-85" value="" style="endArrow=none;html=1;rounded=0;entryX=0.5;entryY=1;entryDx=0;entryDy=0;exitX=0.5;exitY=0;exitDx=0;exitDy=0;" edge="1" parent="1" source="qXPxcM11ZACjKNrQmsFE-69" target="qXPxcM11ZACjKNrQmsFE-81">
          <mxGeometry width="50" height="50" relative="1" as="geometry">
            <mxPoint x="1520" y="370" as="sourcePoint" />
            <mxPoint x="1400" y="170" as="targetPoint" />
          </mxGeometry>
        </mxCell>
        <mxCell id="qXPxcM11ZACjKNrQmsFE-86" value="" style="endArrow=none;html=1;rounded=0;entryX=0.5;entryY=1;entryDx=0;entryDy=0;exitX=0.5;exitY=0;exitDx=0;exitDy=0;" edge="1" parent="1" source="qXPxcM11ZACjKNrQmsFE-69" target="qXPxcM11ZACjKNrQmsFE-82">
          <mxGeometry width="50" height="50" relative="1" as="geometry">
            <mxPoint x="1520" y="370" as="sourcePoint" />
            <mxPoint x="1510" y="150" as="targetPoint" />
          </mxGeometry>
        </mxCell>
        <mxCell id="qXPxcM11ZACjKNrQmsFE-87" value="" style="endArrow=none;html=1;rounded=0;entryX=0;entryY=1;entryDx=0;entryDy=0;exitX=0.5;exitY=0;exitDx=0;exitDy=0;" edge="1" parent="1" source="qXPxcM11ZACjKNrQmsFE-69" target="qXPxcM11ZACjKNrQmsFE-83">
          <mxGeometry width="50" height="50" relative="1" as="geometry">
            <mxPoint x="1520" y="370" as="sourcePoint" />
            <mxPoint x="1640" y="160" as="targetPoint" />
          </mxGeometry>
        </mxCell>
        <mxCell id="qXPxcM11ZACjKNrQmsFE-88" value="&lt;font style=&quot;font-size: 18px;&quot;&gt;景点信息&lt;/font&gt;" style="rounded=0;whiteSpace=wrap;html=1;" vertex="1" parent="1">
          <mxGeometry x="-290" y="1130" width="120" height="60" as="geometry" />
        </mxCell>
        <mxCell id="qXPxcM11ZACjKNrQmsFE-89" value="&lt;font style=&quot;font-size: 18px;&quot;&gt;景点ID&lt;/font&gt;" style="ellipse;whiteSpace=wrap;html=1;" vertex="1" parent="1">
          <mxGeometry x="-580" y="1070" width="100" height="60" as="geometry" />
        </mxCell>
        <mxCell id="qXPxcM11ZACjKNrQmsFE-90" value="&lt;font style=&quot;font-size: 18px;&quot;&gt;景点名称&lt;/font&gt;" style="ellipse;whiteSpace=wrap;html=1;" vertex="1" parent="1">
          <mxGeometry x="-580" y="990" width="100" height="60" as="geometry" />
        </mxCell>
        <mxCell id="qXPxcM11ZACjKNrQmsFE-91" value="&lt;span style=&quot;font-size: 18px;&quot;&gt;景点图片&lt;/span&gt;" style="ellipse;whiteSpace=wrap;html=1;" vertex="1" parent="1">
          <mxGeometry x="-570" y="910" width="100" height="60" as="geometry" />
        </mxCell>
        <mxCell id="qXPxcM11ZACjKNrQmsFE-92" value="&lt;font style=&quot;font-size: 18px;&quot;&gt;景点介绍&lt;/font&gt;" style="ellipse;whiteSpace=wrap;html=1;" vertex="1" parent="1">
          <mxGeometry x="90" y="910" width="100" height="60" as="geometry" />
        </mxCell>
        <mxCell id="qXPxcM11ZACjKNrQmsFE-93" value="&lt;span style=&quot;font-size: 18px;&quot;&gt;景点发布&lt;/span&gt;" style="ellipse;whiteSpace=wrap;html=1;" vertex="1" parent="1">
          <mxGeometry x="57" y="1090" width="100" height="60" as="geometry" />
        </mxCell>
        <mxCell id="qXPxcM11ZACjKNrQmsFE-94" value="" style="endArrow=none;html=1;rounded=0;entryX=1;entryY=1;entryDx=0;entryDy=0;exitX=0.5;exitY=0;exitDx=0;exitDy=0;" edge="1" parent="1" source="qXPxcM11ZACjKNrQmsFE-88" target="qXPxcM11ZACjKNrQmsFE-89">
          <mxGeometry width="50" height="50" relative="1" as="geometry">
            <mxPoint x="-250" y="1180" as="sourcePoint" />
            <mxPoint x="-200" y="1130" as="targetPoint" />
          </mxGeometry>
        </mxCell>
        <mxCell id="qXPxcM11ZACjKNrQmsFE-95" value="" style="endArrow=none;html=1;rounded=0;entryX=0.5;entryY=1;entryDx=0;entryDy=0;exitX=0.5;exitY=0;exitDx=0;exitDy=0;" edge="1" parent="1" source="qXPxcM11ZACjKNrQmsFE-88" target="qXPxcM11ZACjKNrQmsFE-91">
          <mxGeometry width="50" height="50" relative="1" as="geometry">
            <mxPoint x="-220" y="1140" as="sourcePoint" />
            <mxPoint x="-405" y="1091" as="targetPoint" />
          </mxGeometry>
        </mxCell>
        <mxCell id="qXPxcM11ZACjKNrQmsFE-96" value="" style="endArrow=none;html=1;rounded=0;entryX=1;entryY=1;entryDx=0;entryDy=0;exitX=0.5;exitY=0;exitDx=0;exitDy=0;" edge="1" parent="1" source="qXPxcM11ZACjKNrQmsFE-88" target="qXPxcM11ZACjKNrQmsFE-90">
          <mxGeometry width="50" height="50" relative="1" as="geometry">
            <mxPoint x="-220" y="1140" as="sourcePoint" />
            <mxPoint x="-220" y="980" as="targetPoint" />
          </mxGeometry>
        </mxCell>
        <mxCell id="qXPxcM11ZACjKNrQmsFE-97" value="" style="endArrow=none;html=1;rounded=0;entryX=0;entryY=1;entryDx=0;entryDy=0;exitX=0.5;exitY=0;exitDx=0;exitDy=0;" edge="1" parent="1" source="qXPxcM11ZACjKNrQmsFE-88" target="qXPxcM11ZACjKNrQmsFE-92">
          <mxGeometry width="50" height="50" relative="1" as="geometry">
            <mxPoint x="-220" y="1140" as="sourcePoint" />
            <mxPoint x="-335" y="1021" as="targetPoint" />
          </mxGeometry>
        </mxCell>
        <mxCell id="qXPxcM11ZACjKNrQmsFE-98" value="" style="endArrow=none;html=1;rounded=0;entryX=0;entryY=0.5;entryDx=0;entryDy=0;exitX=0.5;exitY=0;exitDx=0;exitDy=0;" edge="1" parent="1" source="qXPxcM11ZACjKNrQmsFE-88" target="qXPxcM11ZACjKNrQmsFE-93">
          <mxGeometry width="50" height="50" relative="1" as="geometry">
            <mxPoint x="-220" y="1140" as="sourcePoint" />
            <mxPoint x="-95" y="1021" as="targetPoint" />
          </mxGeometry>
        </mxCell>
        <mxCell id="qXPxcM11ZACjKNrQmsFE-99" value="&lt;font style=&quot;font-size: 18px;&quot;&gt;门票价格&lt;/font&gt;" style="ellipse;whiteSpace=wrap;html=1;" vertex="1" parent="1">
          <mxGeometry x="-550" y="830" width="100" height="60" as="geometry" />
        </mxCell>
        <mxCell id="qXPxcM11ZACjKNrQmsFE-100" value="&lt;font style=&quot;font-size: 18px;&quot;&gt;开放时间&lt;/font&gt;" style="ellipse;whiteSpace=wrap;html=1;" vertex="1" parent="1">
          <mxGeometry x="-530" y="740" width="100" height="60" as="geometry" />
        </mxCell>
        <mxCell id="qXPxcM11ZACjKNrQmsFE-101" value="&lt;span style=&quot;font-size: 18px;&quot;&gt;景点地址&lt;/span&gt;" style="ellipse;whiteSpace=wrap;html=1;" vertex="1" parent="1">
          <mxGeometry x="-463" y="670" width="100" height="60" as="geometry" />
        </mxCell>
        <mxCell id="qXPxcM11ZACjKNrQmsFE-102" value="&lt;font style=&quot;font-size: 18px;&quot;&gt;历史背景&lt;/font&gt;" style="ellipse;whiteSpace=wrap;html=1;" vertex="1" parent="1">
          <mxGeometry x="70" y="990" width="100" height="60" as="geometry" />
        </mxCell>
        <mxCell id="qXPxcM11ZACjKNrQmsFE-103" value="" style="endArrow=none;html=1;rounded=0;entryX=0.5;entryY=1;entryDx=0;entryDy=0;exitX=0.5;exitY=0;exitDx=0;exitDy=0;" edge="1" parent="1" source="qXPxcM11ZACjKNrQmsFE-88" target="qXPxcM11ZACjKNrQmsFE-99">
          <mxGeometry width="50" height="50" relative="1" as="geometry">
            <mxPoint x="-250" y="1060" as="sourcePoint" />
            <mxPoint x="-200" y="1010" as="targetPoint" />
          </mxGeometry>
        </mxCell>
        <mxCell id="qXPxcM11ZACjKNrQmsFE-104" value="" style="endArrow=none;html=1;rounded=0;entryX=0.5;entryY=1;entryDx=0;entryDy=0;exitX=0.5;exitY=0;exitDx=0;exitDy=0;" edge="1" parent="1" source="qXPxcM11ZACjKNrQmsFE-88" target="qXPxcM11ZACjKNrQmsFE-100">
          <mxGeometry width="50" height="50" relative="1" as="geometry">
            <mxPoint x="-220" y="1140" as="sourcePoint" />
            <mxPoint x="-340" y="940" as="targetPoint" />
          </mxGeometry>
        </mxCell>
        <mxCell id="qXPxcM11ZACjKNrQmsFE-105" value="" style="endArrow=none;html=1;rounded=0;entryX=0.5;entryY=1;entryDx=0;entryDy=0;exitX=0.5;exitY=0;exitDx=0;exitDy=0;" edge="1" parent="1" source="qXPxcM11ZACjKNrQmsFE-88" target="qXPxcM11ZACjKNrQmsFE-101">
          <mxGeometry width="50" height="50" relative="1" as="geometry">
            <mxPoint x="-220" y="1140" as="sourcePoint" />
            <mxPoint x="-230" y="920" as="targetPoint" />
          </mxGeometry>
        </mxCell>
        <mxCell id="qXPxcM11ZACjKNrQmsFE-106" value="" style="endArrow=none;html=1;rounded=0;entryX=0;entryY=1;entryDx=0;entryDy=0;exitX=0.5;exitY=0;exitDx=0;exitDy=0;" edge="1" parent="1" source="qXPxcM11ZACjKNrQmsFE-88" target="qXPxcM11ZACjKNrQmsFE-102">
          <mxGeometry width="50" height="50" relative="1" as="geometry">
            <mxPoint x="-220" y="1140" as="sourcePoint" />
            <mxPoint x="-100" y="930" as="targetPoint" />
          </mxGeometry>
        </mxCell>
        <mxCell id="qXPxcM11ZACjKNrQmsFE-107" value="&lt;font style=&quot;font-size: 18px;&quot;&gt;旅游攻略&lt;/font&gt;" style="rounded=0;whiteSpace=wrap;html=1;" vertex="1" parent="1">
          <mxGeometry x="970" y="1010" width="120" height="60" as="geometry" />
        </mxCell>
        <mxCell id="qXPxcM11ZACjKNrQmsFE-108" value="&lt;span style=&quot;font-size: 18px;&quot;&gt;景区名称&lt;/span&gt;" style="ellipse;whiteSpace=wrap;html=1;" vertex="1" parent="1">
          <mxGeometry x="610" y="1020" width="100" height="60" as="geometry" />
        </mxCell>
        <mxCell id="qXPxcM11ZACjKNrQmsFE-109" value="&lt;span style=&quot;font-size: 18px;&quot;&gt;最佳季节&lt;/span&gt;" style="ellipse;whiteSpace=wrap;html=1;" vertex="1" parent="1">
          <mxGeometry x="570" y="930" width="100" height="60" as="geometry" />
        </mxCell>
        <mxCell id="qXPxcM11ZACjKNrQmsFE-110" value="&lt;span style=&quot;font-size: 18px;&quot;&gt;住宿推荐&lt;/span&gt;" style="ellipse;whiteSpace=wrap;html=1;" vertex="1" parent="1">
          <mxGeometry x="550" y="820" width="100" height="60" as="geometry" />
        </mxCell>
        <mxCell id="qXPxcM11ZACjKNrQmsFE-111" value="&lt;font style=&quot;font-size: 18px;&quot;&gt;周边介绍&lt;/font&gt;" style="ellipse;whiteSpace=wrap;html=1;" vertex="1" parent="1">
          <mxGeometry x="1300" y="740" width="100" height="60" as="geometry" />
        </mxCell>
        <mxCell id="qXPxcM11ZACjKNrQmsFE-112" value="&lt;span style=&quot;font-size: 18px;&quot;&gt;美食推荐&lt;/span&gt;" style="ellipse;whiteSpace=wrap;html=1;" vertex="1" parent="1">
          <mxGeometry x="1440" y="880" width="100" height="60" as="geometry" />
        </mxCell>
        <mxCell id="qXPxcM11ZACjKNrQmsFE-113" value="" style="endArrow=none;html=1;rounded=0;entryX=1;entryY=1;entryDx=0;entryDy=0;exitX=0.5;exitY=0;exitDx=0;exitDy=0;" edge="1" parent="1" source="qXPxcM11ZACjKNrQmsFE-107" target="qXPxcM11ZACjKNrQmsFE-108">
          <mxGeometry width="50" height="50" relative="1" as="geometry">
            <mxPoint x="1010" y="1060" as="sourcePoint" />
            <mxPoint x="1060" y="1010" as="targetPoint" />
          </mxGeometry>
        </mxCell>
        <mxCell id="qXPxcM11ZACjKNrQmsFE-114" value="" style="endArrow=none;html=1;rounded=0;entryX=0.5;entryY=1;entryDx=0;entryDy=0;exitX=0.5;exitY=0;exitDx=0;exitDy=0;" edge="1" parent="1" source="qXPxcM11ZACjKNrQmsFE-107" target="qXPxcM11ZACjKNrQmsFE-110">
          <mxGeometry width="50" height="50" relative="1" as="geometry">
            <mxPoint x="1040" y="1020" as="sourcePoint" />
            <mxPoint x="855" y="971" as="targetPoint" />
          </mxGeometry>
        </mxCell>
        <mxCell id="qXPxcM11ZACjKNrQmsFE-115" value="" style="endArrow=none;html=1;rounded=0;entryX=1;entryY=1;entryDx=0;entryDy=0;exitX=0.5;exitY=0;exitDx=0;exitDy=0;" edge="1" parent="1" source="qXPxcM11ZACjKNrQmsFE-107" target="qXPxcM11ZACjKNrQmsFE-109">
          <mxGeometry width="50" height="50" relative="1" as="geometry">
            <mxPoint x="1040" y="1020" as="sourcePoint" />
            <mxPoint x="1040" y="860" as="targetPoint" />
          </mxGeometry>
        </mxCell>
        <mxCell id="qXPxcM11ZACjKNrQmsFE-116" value="" style="endArrow=none;html=1;rounded=0;entryX=0;entryY=1;entryDx=0;entryDy=0;exitX=0.5;exitY=0;exitDx=0;exitDy=0;" edge="1" parent="1" source="qXPxcM11ZACjKNrQmsFE-107" target="qXPxcM11ZACjKNrQmsFE-111">
          <mxGeometry width="50" height="50" relative="1" as="geometry">
            <mxPoint x="1040" y="1020" as="sourcePoint" />
            <mxPoint x="925" y="901" as="targetPoint" />
          </mxGeometry>
        </mxCell>
        <mxCell id="qXPxcM11ZACjKNrQmsFE-117" value="" style="endArrow=none;html=1;rounded=0;entryX=0;entryY=0.5;entryDx=0;entryDy=0;exitX=0.5;exitY=0;exitDx=0;exitDy=0;" edge="1" parent="1" source="qXPxcM11ZACjKNrQmsFE-107" target="qXPxcM11ZACjKNrQmsFE-112">
          <mxGeometry width="50" height="50" relative="1" as="geometry">
            <mxPoint x="1040" y="1020" as="sourcePoint" />
            <mxPoint x="1165" y="901" as="targetPoint" />
          </mxGeometry>
        </mxCell>
        <mxCell id="qXPxcM11ZACjKNrQmsFE-118" value="&lt;span style=&quot;font-size: 18px;&quot;&gt;预算天数&lt;/span&gt;" style="ellipse;whiteSpace=wrap;html=1;" vertex="1" parent="1">
          <mxGeometry x="610" y="750" width="100" height="60" as="geometry" />
        </mxCell>
        <mxCell id="qXPxcM11ZACjKNrQmsFE-119" value="&lt;font style=&quot;font-size: 18px;&quot;&gt;预算花费&lt;/font&gt;" style="ellipse;whiteSpace=wrap;html=1;" vertex="1" parent="1">
          <mxGeometry x="1100" y="640" width="100" height="60" as="geometry" />
        </mxCell>
        <mxCell id="qXPxcM11ZACjKNrQmsFE-120" value="&lt;span style=&quot;font-size: 18px;&quot;&gt;游玩路线&lt;/span&gt;" style="ellipse;whiteSpace=wrap;html=1;" vertex="1" parent="1">
          <mxGeometry x="1180" y="680" width="100" height="60" as="geometry" />
        </mxCell>
        <mxCell id="qXPxcM11ZACjKNrQmsFE-121" value="&lt;span style=&quot;font-size: 18px;&quot;&gt;景区图片&lt;/span&gt;" style="ellipse;whiteSpace=wrap;html=1;" vertex="1" parent="1">
          <mxGeometry x="1400" y="790" width="100" height="60" as="geometry" />
        </mxCell>
        <mxCell id="qXPxcM11ZACjKNrQmsFE-122" value="" style="endArrow=none;html=1;rounded=0;entryX=0.5;entryY=1;entryDx=0;entryDy=0;exitX=0.5;exitY=0;exitDx=0;exitDy=0;" edge="1" parent="1" source="qXPxcM11ZACjKNrQmsFE-107" target="qXPxcM11ZACjKNrQmsFE-118">
          <mxGeometry width="50" height="50" relative="1" as="geometry">
            <mxPoint x="1010" y="940" as="sourcePoint" />
            <mxPoint x="1060" y="890" as="targetPoint" />
          </mxGeometry>
        </mxCell>
        <mxCell id="qXPxcM11ZACjKNrQmsFE-123" value="" style="endArrow=none;html=1;rounded=0;entryX=0.5;entryY=1;entryDx=0;entryDy=0;exitX=0.5;exitY=0;exitDx=0;exitDy=0;" edge="1" parent="1" source="qXPxcM11ZACjKNrQmsFE-107" target="qXPxcM11ZACjKNrQmsFE-119">
          <mxGeometry width="50" height="50" relative="1" as="geometry">
            <mxPoint x="1040" y="1020" as="sourcePoint" />
            <mxPoint x="920" y="820" as="targetPoint" />
          </mxGeometry>
        </mxCell>
        <mxCell id="qXPxcM11ZACjKNrQmsFE-124" value="" style="endArrow=none;html=1;rounded=0;entryX=0.5;entryY=1;entryDx=0;entryDy=0;exitX=0.5;exitY=0;exitDx=0;exitDy=0;" edge="1" parent="1" source="qXPxcM11ZACjKNrQmsFE-107" target="qXPxcM11ZACjKNrQmsFE-120">
          <mxGeometry width="50" height="50" relative="1" as="geometry">
            <mxPoint x="1040" y="1020" as="sourcePoint" />
            <mxPoint x="1030" y="800" as="targetPoint" />
          </mxGeometry>
        </mxCell>
        <mxCell id="qXPxcM11ZACjKNrQmsFE-125" value="" style="endArrow=none;html=1;rounded=0;entryX=0;entryY=1;entryDx=0;entryDy=0;exitX=0.5;exitY=0;exitDx=0;exitDy=0;" edge="1" parent="1" source="qXPxcM11ZACjKNrQmsFE-107" target="qXPxcM11ZACjKNrQmsFE-121">
          <mxGeometry width="50" height="50" relative="1" as="geometry">
            <mxPoint x="1040" y="1020" as="sourcePoint" />
            <mxPoint x="1160" y="810" as="targetPoint" />
          </mxGeometry>
        </mxCell>
        <mxCell id="qXPxcM11ZACjKNrQmsFE-126" value="&lt;font style=&quot;font-size: 18px;&quot;&gt;查询&lt;/font&gt;" style="rhombus;whiteSpace=wrap;html=1;" vertex="1" parent="1">
          <mxGeometry x="-200" y="310" width="80" height="80" as="geometry" />
        </mxCell>
        <mxCell id="qXPxcM11ZACjKNrQmsFE-127" value="" style="endArrow=none;html=1;rounded=0;entryX=0;entryY=0.5;entryDx=0;entryDy=0;exitX=1;exitY=0.5;exitDx=0;exitDy=0;" edge="1" parent="1" source="qXPxcM11ZACjKNrQmsFE-126" target="qXPxcM11ZACjKNrQmsFE-1">
          <mxGeometry width="50" height="50" relative="1" as="geometry">
            <mxPoint x="240" y="560" as="sourcePoint" />
            <mxPoint x="290" y="510" as="targetPoint" />
          </mxGeometry>
        </mxCell>
        <mxCell id="qXPxcM11ZACjKNrQmsFE-128" value="" style="endArrow=none;html=1;rounded=0;entryX=0;entryY=0.5;entryDx=0;entryDy=0;exitX=1;exitY=0.5;exitDx=0;exitDy=0;" edge="1" parent="1" source="qXPxcM11ZACjKNrQmsFE-31" target="qXPxcM11ZACjKNrQmsFE-126">
          <mxGeometry width="50" height="50" relative="1" as="geometry">
            <mxPoint x="-110" y="360" as="sourcePoint" />
            <mxPoint x="360" y="380" as="targetPoint" />
          </mxGeometry>
        </mxCell>
        <mxCell id="qXPxcM11ZACjKNrQmsFE-129" value="&lt;font style=&quot;font-size: 18px;&quot;&gt;查询&lt;/font&gt;" style="rhombus;whiteSpace=wrap;html=1;rotation=-60;" vertex="1" parent="1">
          <mxGeometry x="50" y="585" width="80" height="80" as="geometry" />
        </mxCell>
        <mxCell id="qXPxcM11ZACjKNrQmsFE-130" value="" style="endArrow=none;html=1;rounded=0;entryX=0;entryY=0.5;entryDx=0;entryDy=0;exitX=1;exitY=0.5;exitDx=0;exitDy=0;" edge="1" parent="1" source="qXPxcM11ZACjKNrQmsFE-129" target="qXPxcM11ZACjKNrQmsFE-1">
          <mxGeometry width="50" height="50" relative="1" as="geometry">
            <mxPoint x="-110" y="360" as="sourcePoint" />
            <mxPoint x="360" y="380" as="targetPoint" />
          </mxGeometry>
        </mxCell>
        <mxCell id="qXPxcM11ZACjKNrQmsFE-133" value="&lt;font style=&quot;font-size: 18px;&quot;&gt;查询&lt;/font&gt;" style="rhombus;whiteSpace=wrap;html=1;" vertex="1" parent="1">
          <mxGeometry x="840" y="330" width="80" height="80" as="geometry" />
        </mxCell>
        <mxCell id="qXPxcM11ZACjKNrQmsFE-134" value="" style="endArrow=none;html=1;rounded=0;entryX=0;entryY=0.5;entryDx=0;entryDy=0;exitX=1;exitY=0.5;exitDx=0;exitDy=0;" edge="1" parent="1" source="qXPxcM11ZACjKNrQmsFE-1" target="qXPxcM11ZACjKNrQmsFE-133">
          <mxGeometry width="50" height="50" relative="1" as="geometry">
            <mxPoint x="240" y="560" as="sourcePoint" />
            <mxPoint x="290" y="510" as="targetPoint" />
          </mxGeometry>
        </mxCell>
        <mxCell id="qXPxcM11ZACjKNrQmsFE-135" value="" style="endArrow=none;html=1;rounded=0;entryX=0;entryY=0.5;entryDx=0;entryDy=0;exitX=1;exitY=0.5;exitDx=0;exitDy=0;" edge="1" parent="1" source="qXPxcM11ZACjKNrQmsFE-133" target="qXPxcM11ZACjKNrQmsFE-69">
          <mxGeometry width="50" height="50" relative="1" as="geometry">
            <mxPoint x="480" y="380" as="sourcePoint" />
            <mxPoint x="850" y="380" as="targetPoint" />
          </mxGeometry>
        </mxCell>
        <mxCell id="qXPxcM11ZACjKNrQmsFE-137" value="&lt;font style=&quot;font-size: 18px;&quot;&gt;查询&lt;/font&gt;" style="rhombus;whiteSpace=wrap;html=1;" vertex="1" parent="1">
          <mxGeometry x="360" y="-10" width="80" height="80" as="geometry" />
        </mxCell>
        <mxCell id="qXPxcM11ZACjKNrQmsFE-138" value="" style="endArrow=none;html=1;rounded=0;entryX=0.5;entryY=1;entryDx=0;entryDy=0;exitX=0.5;exitY=0;exitDx=0;exitDy=0;" edge="1" parent="1" source="qXPxcM11ZACjKNrQmsFE-1" target="qXPxcM11ZACjKNrQmsFE-137">
          <mxGeometry width="50" height="50" relative="1" as="geometry">
            <mxPoint x="240" y="360" as="sourcePoint" />
            <mxPoint x="290" y="310" as="targetPoint" />
          </mxGeometry>
        </mxCell>
        <mxCell id="qXPxcM11ZACjKNrQmsFE-139" value="" style="endArrow=none;html=1;rounded=0;entryX=0.5;entryY=1;entryDx=0;entryDy=0;exitX=0.5;exitY=0;exitDx=0;exitDy=0;" edge="1" parent="1" source="qXPxcM11ZACjKNrQmsFE-137" target="qXPxcM11ZACjKNrQmsFE-50">
          <mxGeometry width="50" height="50" relative="1" as="geometry">
            <mxPoint x="420" y="350" as="sourcePoint" />
            <mxPoint x="410" y="80" as="targetPoint" />
          </mxGeometry>
        </mxCell>
        <mxCell id="qXPxcM11ZACjKNrQmsFE-141" value="" style="endArrow=none;html=1;rounded=0;entryX=0.5;entryY=0;entryDx=0;entryDy=0;exitX=0;exitY=0.5;exitDx=0;exitDy=0;" edge="1" parent="1" source="qXPxcM11ZACjKNrQmsFE-129" target="qXPxcM11ZACjKNrQmsFE-88">
          <mxGeometry width="50" height="50" relative="1" as="geometry">
            <mxPoint x="120" y="600" as="sourcePoint" />
            <mxPoint x="360" y="380" as="targetPoint" />
          </mxGeometry>
        </mxCell>
        <mxCell id="qXPxcM11ZACjKNrQmsFE-144" value="&lt;font style=&quot;font-size: 18px;&quot;&gt;查询&lt;/font&gt;" style="rhombus;whiteSpace=wrap;html=1;rotation=55;" vertex="1" parent="1">
          <mxGeometry x="720" y="545" width="80" height="80" as="geometry" />
        </mxCell>
        <mxCell id="qXPxcM11ZACjKNrQmsFE-145" value="" style="endArrow=none;html=1;rounded=0;entryX=1;entryY=0.5;entryDx=0;entryDy=0;exitX=0;exitY=0.5;exitDx=0;exitDy=0;" edge="1" parent="1" source="qXPxcM11ZACjKNrQmsFE-144" target="qXPxcM11ZACjKNrQmsFE-1">
          <mxGeometry width="50" height="50" relative="1" as="geometry">
            <mxPoint x="240" y="760" as="sourcePoint" />
            <mxPoint x="290" y="710" as="targetPoint" />
          </mxGeometry>
        </mxCell>
        <mxCell id="qXPxcM11ZACjKNrQmsFE-146" value="" style="endArrow=none;html=1;rounded=0;entryX=1;entryY=0.5;entryDx=0;entryDy=0;exitX=0.5;exitY=0;exitDx=0;exitDy=0;" edge="1" parent="1" source="qXPxcM11ZACjKNrQmsFE-107" target="qXPxcM11ZACjKNrQmsFE-144">
          <mxGeometry width="50" height="50" relative="1" as="geometry">
            <mxPoint x="240" y="760" as="sourcePoint" />
            <mxPoint x="290" y="710" as="targetPoint" />
          </mxGeometry>
        </mxCell>
      </root>
    </mxGraphModel>
  </diagram>
</mxfile>
